# xmcd
# Track frame offsets:
# 150
# 14476
# 31576
# 49427
# 65628
# 84153
# 100953
# 116778
# 134329
#
# Disc length: 1990 seconds
# Revision: 0
# Processed by: cddbd v1.5.1PL0 Copyright (c) Steve Scherf et al.
# Submitted via: VisiTrax 2.9.10.228 - For more info visit www.synapsa.com
#
DISCID=7607c409
DTITLE=Various Artist - Hits Monthly Nashville  PHN0106
DYEAR=1900
DGENRE=Karaoke
TTITLE0=O'Neal, Jamie - When I Think About Angels
TTITLE1=Yearwood, Trisha - I Would've Loved You Anyway
TTITLE2=McGraw, Tim - Grown Men Don't Cry
TTITLE3=Womack, Lee Ann - Why They Call It Falling
TTITLE4=Paisley, Brad - Two People Fell In Love
TTITLE5=Johnson, Carolyn Dawn - Complicated
TTITLE6=Rascal Flatts - While You Loved Me
TTITLE7=Cagle, Chris - Laredo
TTITLE8=Thompson, Cyndi - What I Really Meant To Say
EXTD=
EXTT0=
EXTT1=
EXTT2=
EXTT3=
EXTT4=
EXTT5=
EXTT6=
EXTT7=
EXTT8=
PLAYORDER=
